# xmcd CD database file
# Copyright (C) 1993-1998 Ti Kan
#
# Track frame offsets:
#  150
#  19425
#  38387
#  58745
#  78955
#  99317
#  122750
#  144822
#  166972
#  186995
#  199697
#  217025
#  237877
#  254737
#  272010
#  289632
#  310000
#
# Disc length: 4267 seconds
#
# Revision: 1
# Processed by: cddbd v1.4b41PL1 Copyright (c) Steve Scherf et al.
# Submitted via: CDWizzard Release:4.35
#
DISCID=ed10a911
DTITLE=Lea Allen - Saxy
DYEAR=1900
DGENRE=
TTITLE0=Unbreak My Heart
TTITLE1=Every Time I Close My Eyes
TTITLE2=Because You Loved Me
TTITLE3=Total Eclipse Of The Heart
TTITLE4=I'm Still In Love With You
TTITLE5=On Bended Knee
TTITLE6=Dreaming Of You
TTITLE7=Killing Me Softly
TTITLE8=Kiss From A Rose
TTITLE9=I Can't Stop Loving You
TTITLE10=You Were Meant For Me
TTITLE11=You Are Not Alone
TTITLE12=One Sweet Day
TTITLE13=Exhale (Shoop Shoop)
TTITLE14=Don't Speak
TTITLE15=You'll See
TTITLE16=Hawaiian Wedding Song
EXTD=ID 02527C86 Time 70:58
EXTT0=
EXTT1=
EXTT2=
EXTT3=
EXTT4=
EXTT5=
EXTT6=
EXTT7=
EXTT8=
EXTT9=
EXTT10=
EXTT11=
EXTT12=
EXTT13=
EXTT14=
EXTT15=
EXTT16=
PLAYORDER=
